<?xml version="1.0" encoding="utf-8"?>
<!-- Generator: Adobe Illustrator 24.1.3, SVG Export Plug-In . SVG Version: 6.00 Build 0)  -->
<svg version="1.1" id="Layer_1" xmlns="http://www.w3.org/2000/svg" xmlns:xlink="http://www.w3.org/1999/xlink" x="0px" y="0px"
	 width="3390px" height="1036px" viewBox="0 0 3390 1036" style="enable-background:new 0 0 3390 1036;" xml:space="preserve">
<style type="text/css">
	.st0{fill:none;stroke:#D5D8DE;stroke-width:2;stroke-miterlimit:10;stroke-dasharray:7,7;}
	.st1{fill:none;stroke:#D5D8DE;stroke-width:2;stroke-linecap:round;stroke-linejoin:round;}
	.st2{fill:none;stroke:#D5D8DE;stroke-width:2;stroke-dasharray:7,7;}
	.st3{fill:#EEF1F8;stroke:#D5D8DE;stroke-width:2;}
	.st4{fill:#D5D8DE;}
	.st5{fill:#EEF1F8;stroke:#D5D8DE;stroke-width:2;stroke-miterlimit:4.0001;}
	.st6{fill:#EEF1F8;stroke:#018BFF;stroke-width:2;}
	.st7{fill:#018BFF;}
	.st8{fill:none;stroke:#D5D8DE;stroke-width:2;stroke-linejoin:round;stroke-dasharray:7,7;}
	.st9{fill:none;stroke:#D5D8DE;stroke-width:2;}
	.st10{fill:none;stroke:#D5D8DE;stroke-width:2;stroke-linejoin:round;}
	.st11{fill:#EEF1F8;stroke:#D5D8DE;stroke-width:2;stroke-miterlimit:4;}
</style>
<g id="Layer_2_1_">
	<polygon class="st0" points="41.085,529.77 312.271,364.328 801.829,181.293 462.285,684.1 	"/>
	<polyline class="st0" points="985.498,827.243 1185.985,562.839 986.123,306.404 	"/>
	<line class="st1" x1="986.123" y1="306.404" x2="985.498" y2="827.243"/>
	<polyline class="st0" points="1355.75,563.278 985.501,562.32 520.265,807.604 	"/>
	<line class="st1" x1="1355.75" y1="563.278" x2="801.829" y2="181.293"/>
</g>
<g id="Layer_1_1_">
	<g>
		<g>
			<path class="st2" d="M520.41,802.936"/>
			<path class="st1" d="M801.926,181.226"/>
			<path class="st1" d="M986.101,562.178L462.285,684.1l523.213,143.143"/>
			<path class="st1" d="M985.501,562.32L156.787,32.562l363.478,775.042"/>
			<circle class="st3" cx="541.823" cy="278.264" r="18.639"/>
			<circle class="st4" cx="541.823" cy="278.264" r="11.001"/>
			<circle class="st3" cx="576.805" cy="514.906" r="18.639"/>
			<circle class="st4" cx="576.806" cy="514.906" r="11.001"/>
			
				<ellipse transform="matrix(0.0709 -0.9975 0.9975 0.0709 -252.8699 1097.0353)" class="st5" cx="462.454" cy="684.258" rx="18.639" ry="18.639"/>
			<circle class="st4" cx="462.439" cy="684.258" r="11.001"/>
			
				<ellipse transform="matrix(0.9239 -0.3827 0.3827 0.9239 -269.1216 260.6727)" class="st3" cx="520.684" cy="806.819" rx="18.639" ry="18.639"/>
			
				<ellipse transform="matrix(0.9239 -0.3827 0.3827 0.9239 -269.1216 260.6731)" class="st4" cx="520.685" cy="806.819" rx="11.001" ry="11.001"/>
			<circle class="st3" cx="985.501" cy="562.378" r="18.639"/>
			<circle class="st4" cx="985.501" cy="562.378" r="11.001"/>
			<circle class="st3" cx="986.214" cy="306.554" r="18.639"/>
			<circle class="st4" cx="986.215" cy="306.554" r="11.001"/>
			<circle class="st3" cx="1355.3" cy="563.114" r="18.639"/>
			<circle class="st4" cx="1355.3" cy="563.114" r="11.001"/>
			<circle class="st3" cx="985.614" cy="826.743" r="18.639"/>
			<circle class="st4" cx="985.615" cy="826.743" r="11.001"/>
			<circle class="st3" cx="677.366" cy="365.43" r="18.639"/>
			<circle class="st4" cx="677.367" cy="365.43" r="11.001"/>
			<circle class="st3" cx="41.085" cy="529.508" r="18.639"/>
			<circle class="st4" cx="41.086" cy="529.508" r="11.001"/>
			<circle class="st3" cx="157.087" cy="32.965" r="18.639"/>
			<circle class="st4" cx="157.088" cy="32.965" r="11.001"/>
			<circle class="st3" cx="790.997" cy="774.016" r="18.639"/>
			<circle class="st4" cx="790.997" cy="774.016" r="11.001"/>
			<circle class="st6" cx="312.121" cy="364.33" r="22.703"/>
			<circle class="st7" cx="312.121" cy="364.33" r="14.03"/>
			<circle class="st6" cx="801.926" cy="181.293" r="22.703"/>
			<circle class="st7" cx="801.927" cy="181.293" r="14.03"/>
			<g>
				<circle class="st6" cx="1185.614" cy="562.928" r="22.703"/>
				<circle class="st7" cx="1185.615" cy="562.928" r="14.03"/>
			</g>
			<path class="st2" d="M2993.71,810.106l129.32-591.362l-433.54-44.79"/>
			<path class="st8" d="M2689.5,174.011l-618.09,430.354l738.51-179.253"/>
			<path class="st9" d="M2546.37,273.735l149.47,179.226l297.87,357.145 M2993.71,810.106L2993.71,810.106 M2993.71,810.106
				l-778.59-305.685"/>
			<path class="st9" d="M2810.02,424.793l464.57-306.555l-585.21,55.548"/>
			<path class="st9" d="M2071.53,604.323l1241.18,108.513"/>
			<circle class="st3" cx="2215.27" cy="504.5" r="18.639"/>
			<circle class="st4" cx="2215.27" cy="504.5" r="11.001"/>
			<circle class="st3" cx="2317.55" cy="545.032" r="18.639"/>
			<circle class="st4" cx="2317.55" cy="545.033" r="11.001"/>
			<path class="st10" d="M2993.71,810.106l319.55-97.279l-887.77-508.093l263.94-30.709"/>
			<circle class="st6" cx="2426.09" cy="204.963" r="22.703"/>
			<circle class="st7" cx="2426.09" cy="204.963" r="14.03"/>
			<circle class="st3" cx="2809.92" cy="424.793" r="18.639"/>
			<circle class="st4" cx="2809.92" cy="424.793" r="11.001"/>
			<circle class="st3" cx="2583.65" cy="649.177" r="18.639"/>
			<circle class="st4" cx="2583.65" cy="649.178" r="11.001"/>
			<circle class="st3" cx="3020.8" cy="687.556" r="18.639"/>
			<circle class="st4" cx="3020.8" cy="687.556" r="11.001"/>
			<circle class="st3" cx="3313.26" cy="712.836" r="18.639"/>
			<circle class="st4" cx="3313.26" cy="712.836" r="11.001"/>
			
				<ellipse transform="matrix(0.7065 -0.7077 0.7077 0.7065 761.431 2273.9927)" class="st11" cx="3122.377" cy="218.97" rx="18.602" ry="18.669"/>
			
				<ellipse transform="matrix(0.7069 -0.7074 0.7074 0.7069 760.5258 2272.9783)" class="st4" cx="3122.619" cy="218.912" rx="10.95" ry="11.037"/>
			<circle class="st3" cx="2689.57" cy="174.194" r="18.639"/>
			<circle class="st4" cx="2689.57" cy="174.194" r="11.001"/>
			<circle class="st3" cx="2546.052" cy="274.193" r="18.639"/>
			<circle class="st4" cx="2546.052" cy="274.193" r="11.001"/>
			<circle class="st6" cx="3048.31" cy="561.228" r="22.703"/>
			<circle class="st7" cx="3048.31" cy="561.228" r="14.03"/>
			<path class="st2" d="M2071.541,604.322l360.999,204.277l561.17,1.507"/>
			<circle class="st3" cx="2072.53" cy="604.521" r="18.639"/>
			<circle class="st4" cx="2072.53" cy="604.521" r="11.001"/>
			<circle class="st3" cx="2993.71" cy="810.037" r="18.639"/>
			<circle class="st4" cx="2993.71" cy="810.037" r="11.001"/>
			<circle class="st6" cx="2433.59" cy="808.599" r="22.703"/>
			<circle class="st7" cx="2433.59" cy="808.599" r="14.03"/>
		</g>
	</g>
	
		<ellipse transform="matrix(0.7065 -0.7077 0.7077 0.7065 876.9794 2352.1475)" class="st11" cx="3274.379" cy="118.735" rx="18.602" ry="18.669"/>
	
		<ellipse transform="matrix(0.7069 -0.7074 0.7074 0.7069 875.9962 2351.1189)" class="st4" cx="3274.631" cy="118.667" rx="10.95" ry="11.037"/>
</g>
</svg>
